<svg xmlns="http://www.w3.org/2000/svg" viewBox="0 0 1200 800" role="img" aria-labelledby="title desc">
  <title id="title">European Union flag</title>
  <desc id="desc">A blue flag with twelve gold five-pointed stars arranged in a circle.</desc>
  <rect width="1200" height="800" fill="#003399"/>
  <polygon points="600.00,148.00 606.29,167.35 626.63,167.35 610.17,179.30 616.46,198.65 600.00,186.70 583.54,198.65 589.83,179.30 573.37,167.35 593.71,167.35" fill="#FFCC00"/>
  <polygon points="712.00,178.01 718.29,197.36 738.63,197.36 722.17,209.32 728.46,228.66 712.00,216.71 695.54,228.66 701.83,209.32 685.37,197.36 705.71,197.36" fill="#FFCC00"/>
  <polygon points="793.99,260.00 800.28,279.35 820.62,279.35 804.16,291.30 810.45,310.65 793.99,298.70 777.53,310.65 783.82,291.30 767.36,279.35 787.70,279.35" fill="#FFCC00"/>
  <polygon points="824.00,372.00 830.29,391.35 850.63,391.35 834.17,403.30 840.46,422.65 824.00,410.70 807.54,422.65 813.83,403.30 797.37,391.35 817.71,391.35" fill="#FFCC00"/>
  <polygon points="793.99,484.00 800.28,503.35 820.62,503.35 804.16,515.30 810.45,534.65 793.99,522.70 777.53,534.65 783.82,515.30 767.36,503.35 787.70,503.35" fill="#FFCC00"/>
  <polygon points="712.00,565.99 718.29,585.34 738.63,585.34 722.17,597.29 728.46,616.64 712.00,604.68 695.54,616.64 701.83,597.29 685.37,585.34 705.71,585.34" fill="#FFCC00"/>
  <polygon points="600.00,596.00 606.29,615.35 626.63,615.35 610.17,627.30 616.46,646.65 600.00,634.70 583.54,646.65 589.83,627.30 573.37,615.35 593.71,615.35" fill="#FFCC00"/>
  <polygon points="488.00,565.99 494.29,585.34 514.63,585.34 498.17,597.29 504.46,616.64 488.00,604.68 471.54,616.64 477.83,597.29 461.37,585.34 481.71,585.34" fill="#FFCC00"/>
  <polygon points="406.01,484.00 412.30,503.35 432.64,503.35 416.18,515.30 422.47,534.65 406.01,522.70 389.55,534.65 395.84,515.30 379.38,503.35 399.72,503.35" fill="#FFCC00"/>
  <polygon points="376.00,372.00 382.29,391.35 402.63,391.35 386.17,403.30 392.46,422.65 376.00,410.70 359.54,422.65 365.83,403.30 349.37,391.35 369.71,391.35" fill="#FFCC00"/>
  <polygon points="406.01,260.00 412.30,279.35 432.64,279.35 416.18,291.30 422.47,310.65 406.01,298.70 389.55,310.65 395.84,291.30 379.38,279.35 399.72,279.35" fill="#FFCC00"/>
  <polygon points="488.00,178.01 494.29,197.36 514.63,197.36 498.17,209.32 504.46,228.66 488.00,216.71 471.54,228.66 477.83,209.32 461.37,197.36 481.71,197.36" fill="#FFCC00"/>
</svg>
